# xmcd
#
# Track frame offsets:
#	150
#	18787
#	35179
#	53569
#	71950
#	89008
#	107265
#	122013
#	138791
#	158296
#	174960
#	189381
#	205181
#	222043
#
# Disc length: 3177 seconds
#
# Revision: 2
# Processed by: cddbd v1.5.1PL0 Copyright (c) Steve Scherf et al.
# Submitted via: audiograbber 1.80
#
DISCID=b20c670e
DTITLE=Daniel - Em Qualquer Lugar do Mundo
DYEAR=1900
DGENRE=
TTITLE0=Em Qualquer Lugar do Mundo
TTITLE1=A Chama do Amor
TTITLE2=Correnteza de Emoção
TTITLE3=Querida
TTITLE4=Direto no Coração
TTITLE5=Jogado Na Rua
TTITLE6=Memórias de Uma Paixão
TTITLE7=Boêmio Apaixonado
TTITLE8=Os Amantes
TTITLE9=Machuca Eu
TTITLE10=Bem Simplesinho
TTITLE11=Sombra Boa e Água Fresca
TTITLE12=Vou de Fusca
TTITLE13=Meu Pai
EXTD=
EXTT0=
EXTT1=
EXTT2=
EXTT3=
EXTT4=
EXTT5=
EXTT6=
EXTT7=
EXTT8=
EXTT9=
EXTT10=
EXTT11=
EXTT12=
EXTT13=
PLAYORDER=
